HIERARCHY
ROOT Hips
{
	OFFSET -3.958830 18.904000 13.208200
	CHANNELS 6 Xposition Yposition Zposition Zrotation Yrotation Xrotation 
	JOINT LHipJoint
	{
		OFFSET 0.000000 0.000000 0.000000
		CHANNELS 3 Zrotation Yrotation Xrotation
		JOINT LeftUpLeg
		{
			OFFSET 1.800000 -1.400000 0.085000
			CHANNELS 3 Zrotation Yrotation Xrotation
			JOINT LeftLeg
			{
				OFFSET 2.215000 -6.000000 0.000000
				CHANNELS 3 Zrotation Yrotation Xrotation
				JOINT LeftFoot
				{
					OFFSET 2.500000 -6.900000 0.000000
					CHANNELS 3 Zrotation Yrotation Xrotation
					JOINT LeftToeBase
					{
						OFFSET 0.200000 -0.500000 1.950000
						CHANNELS 3 Zrotation Yrotation Xrotation
						End Site
						{
							OFFSET 0.000000 0.000000 0.000000
						}
					}
				}
			}
		}
	}
	JOINT RHipJoint
	{
		OFFSET 0.000000 0.000000 0.000000
		CHANNELS 3 Zrotation Yrotation Xrotation
		JOINT RightUpLeg
		{
			OFFSET -1.800000 -1.400000 0.085000
			CHANNELS 3 Zrotation Yrotation Xrotation
			JOINT RightLeg
			{
				OFFSET -2.215000 -6.000000 0.000000
				CHANNELS 3 Zrotation Yrotation Xrotation
				JOINT RightFoot
				{
					OFFSET -2.500000 -6.900000 0.000000
					CHANNELS 3 Zrotation Yrotation Xrotation
					JOINT RightToeBase
					{
						OFFSET -0.200000 -0.500000 1.950000
						CHANNELS 3 Zrotation Yrotation Xrotation
						End Site
						{
							OFFSET 0.000000 0.000000 0.000000
						}
					}
				}
			}
		}
	}
	JOINT LowerBack
	{
		OFFSET 0.000000 0.000000 0.000000
		CHANNELS 3 Zrotation Yrotation Xrotation
		JOINT Spine
		{
			OFFSET -0.087000 1.940000 -0.288900
			CHANNELS 3 Zrotation Yrotation Xrotation
			JOINT Spine1
			{
				OFFSET 0.000000 1.950000 0.060000
				CHANNELS 3 Zrotation Yrotation Xrotation
				JOINT Neck
				{
					OFFSET 0.000000 0.000000 0.000000
					CHANNELS 3 Zrotation Yrotation Xrotation
					JOINT Neck1
					{
						OFFSET 0.000000 1.600000 0.340000
						CHANNELS 3 Zrotation Yrotation Xrotation
						JOINT Head
						{
							OFFSET 0.000000 1.667000 -0.240000
							CHANNELS 3 Zrotation Yrotation Xrotation
							End Site
							{
								OFFSET 0.000000 0.000000 0.000000
							}
						}
					}
				}
				JOINT LeftShoulder
				{
					OFFSET 0.000000 0.000000 0.000000
					CHANNELS 3 Zrotation Yrotation Xrotation
					JOINT LeftArm
					{
						OFFSET 2.700000 1.550000 -0.730000
						CHANNELS 3 Zrotation Yrotation Xrotation
						JOINT LeftForeArm
						{
							OFFSET 5.450000 0.000000 0.000000
							CHANNELS 3 Zrotation Yrotation Xrotation
							JOINT LeftHand
							{
								OFFSET 3.450000 0.000000 0.000000
								CHANNELS 3 Zrotation Yrotation Xrotation
								JOINT LeftHandIndex1
								{
									OFFSET 0.750000 0.000000 0.000000
									CHANNELS 3 Zrotation Yrotation Xrotation
									End Site
									{
										OFFSET 0.000000 0.000000 0.000000
									}
								}
							}
						}
					}
				}
				JOINT RightShoulder
				{
					OFFSET 0.000000 0.000000 0.000000
					CHANNELS 3 Zrotation Yrotation Xrotation
					JOINT RightArm
					{
						OFFSET -2.700000 1.550000 -0.730000
						CHANNELS 3 Zrotation Yrotation Xrotation
						JOINT RightForeArm
						{
							OFFSET -5.450000 0.000000 0.000000
							CHANNELS 3 Zrotation Yrotation Xrotation
							JOINT RightHand
							{
								OFFSET -3.450000 0.000000 0.000000
								CHANNELS 3 Zrotation Yrotation Xrotation
								JOINT RightHandIndex1
								{
									OFFSET -0.750000 0.000000 0.000000
									CHANNELS 3 Zrotation Yrotation Xrotation
									End Site
									{
										OFFSET 0.000000 0.000000 0.000000
									}
								}
							}
						}
					}
				}
			}
		}
	}
}
MOTION
Frames: 9
Frame Time: 0.016667
-0.694990 16.937450 -1.254710 -6.385731 -2.897116 15.224232 -14.935063 13.285225 3.604891 20.838720 -1.750450 -12.006225 -5.373177 4.368586 -0.461704 0.545351 3.856561 3.099136 -0.236360 -0.037030 -0.132560 18.304963 -10.291296 3.042697 -6.810392 0.803954 -11.536927 6.859823 -2.702904 0.513380 0.058623 -2.837913 3.262216 -0.136640 0.052820 -0.112720 -3.911766 -2.588570 -8.335878 15.636009 -0.063547 -0.600523 -6.594856 0.560026 -15.831878 2.593891 -4.130043 -13.447864 -11.099609 4.586547 41.024709 2.426880 1.203410 9.757070 1.178542 3.442093 2.923651 -12.914787 2.662633 -1.280978 9.367952 -0.537446 0.686359 -3.982899 2.947077 -0.255420 -0.013020 -0.055100 -0.135030 -6.140133 2.486839 9.084043 14.970791 -5.541317 -1.189322 -10.330641 -5.884651 1.071942 3.584069 -1.134231 0.074150 -0.140130 -0.011300 0.213820 
-0.661700 16.921010 -1.234280 -6.455865 -2.516497 15.686016 -14.938283 13.201113 3.603456 20.449371 -1.878319 -11.606497 -5.009989 4.113187 -1.650394 0.573886 3.835506 3.125123 -0.251720 -0.057570 -0.141700 18.327137 -10.213131 3.060120 -6.963486 0.804073 -11.270491 7.005305 -2.606756 -0.492769 0.047095 -2.893678 3.248027 -0.154080 0.057700 -0.108740 -3.949656 -2.586502 -8.296453 15.923536 0.032625 -1.797842 -6.730764 0.462237 -15.877693 2.677666 -4.191305 -13.410872 -11.117973 4.512528 40.560438 2.222370 1.312390 10.328620 0.447839 3.524760 2.953102 -12.321058 4.104884 -1.462640 9.614421 0.425267 0.769970 -3.996815 2.949719 -0.264130 -0.007920 -0.061120 -0.135220 -5.618367 2.400602 9.168546 14.626839 -6.703018 -1.305339 -10.253595 -5.822297 1.062207 3.589264 -1.140036 0.077190 -0.152410 -0.009760 0.217670 
-0.628880 16.904370 -1.218980 -6.515294 -2.182275 16.002676 -14.944097 13.123866 3.605643 20.124763 -1.970394 -11.209560 -4.751406 3.918522 -2.655428 0.596331 3.833989 3.139879 -0.263780 -0.075290 -0.147600 18.343843 -10.147261 3.076047 -7.103060 0.797864 -10.965388 7.081286 -2.522008 -1.370824 0.034466 -2.948863 3.232693 -0.167440 0.058890 -0.106100 -3.973762 -2.574496 -8.269461 16.081646 0.138852 -2.727646 -6.797717 0.420052 -15.857546 2.756079 -4.182643 -13.391412 -11.022917 4.384327 40.213727 2.055920 1.355350 10.715120 -0.213789 3.532344 2.993205 -11.791343 5.238134 -1.537880 10.178462 1.669037 0.900259 -4.013876 2.949783 -0.267780 -0.005500 -0.065120 -0.136910 -5.142655 2.343485 9.257978 14.326881 -7.801013 -1.396517 -10.199060 -5.800082 1.061943 3.591605 -1.143661 0.077920 -0.162200 -0.007530 0.218170 
-0.596420 16.890000 -1.206800 -6.505494 -1.887408 16.212017 -14.949573 13.058952 3.604184 19.745797 -2.034548 -10.826733 -4.519056 3.754555 -3.510595 0.617782 3.827978 3.157411 -0.277610 -0.091190 -0.156600 18.355767 -10.104300 3.088946 -7.300966 0.790294 -10.692680 7.093412 -2.455112 -2.056537 0.025635 -3.000447 3.220873 -0.179320 0.063530 -0.107890 -3.989416 -2.541266 -8.246214 16.068959 0.262832 -3.481310 -6.783891 0.416350 -15.806320 2.798665 -4.153435 -13.397731 -10.906955 4.232837 39.947901 1.942300 1.325580 11.134610 -0.752164 3.497639 3.055861 -11.343875 6.160328 -1.551688 10.796155 3.059301 1.070357 -4.032921 2.945739 -0.273980 -0.001900 -0.070960 -0.137500 -4.702451 2.316383 9.354789 14.011416 -8.857673 -1.459501 -10.120996 -5.779674 1.056353 3.593632 -1.144729 0.076920 -0.166560 -0.005440 0.220900 
-0.562900 16.878910 -1.197300 -6.545183 -1.595882 16.369459 -14.954573 13.009730 3.605232 19.436427 -2.083713 -10.552034 -4.318255 3.627748 -4.188076 0.633207 3.825947 3.170940 -0.290330 -0.106440 -0.164640 18.365229 -10.068314 3.098672 -7.406645 0.787104 -10.458828 7.042125 -2.394618 -2.599032 0.020499 -3.041177 3.212841 -0.189150 0.068700 -0.109590 -4.001589 -2.522951 -8.230471 16.145882 0.396644 -4.046370 -6.801592 0.455880 -15.835352 2.869170 -4.111746 -13.379077 -10.778360 4.047848 39.706919 1.749440 1.287030 11.503060 -1.162941 3.545903 3.052483 -11.019899 6.749996 -1.532675 11.344853 4.142862 1.228266 -4.050080 2.942903 -0.280030 0.003010 -0.078040 -0.138420 -4.442080 2.237259 9.426528 13.753072 -9.741636 -1.512045 -9.844707 -5.674797 1.012310 3.592188 -1.142149 0.074650 -0.169670 -0.002500 0.222400 
-0.530230 16.872620 -1.189950 -6.490054 -1.312233 16.502460 -14.961296 12.981927 3.607263 19.057774 -2.122850 -10.383515 -4.149167 3.517236 -4.710623 0.645584 3.806039 3.188352 -0.298590 -0.117870 -0.169310 18.365140 -10.048367 3.109401 -7.608382 0.791523 -10.316855 6.998623 -2.353473 -2.986205 0.015119 -3.069713 3.208313 -0.198960 0.069770 -0.111540 -3.996534 -2.511216 -8.228941 16.020578 0.521605 -4.486227 -6.654938 0.519912 -16.011628 2.924827 -4.094021 -13.419423 -10.774443 3.887804 39.724573 1.622190 1.172580 11.833460 -1.427214 3.588155 3.063428 -10.905868 7.224037 -1.537193 11.734397 4.850378 1.351071 -4.055305 2.940399 -0.281190 0.002970 -0.080130 -0.137320 -4.249931 2.197134 9.520758 13.487343 -10.656280 -1.570054 -9.721722 -5.423073 0.978485 3.589895 -1.139975 0.074130 -0.172380 -0.003080 0.224040 
-0.497880 16.868470 -1.183080 -6.418516 -1.000378 16.608879 -14.968321 12.952608 3.611858 18.739455 -2.147484 -10.261020 -4.092195 3.438290 -5.146770 0.658118 3.793564 3.200313 -0.308850 -0.129480 -0.175950 18.364101 -10.032355 3.117670 -7.817576 0.790965 -10.167830 6.953571 -2.320596 -3.317872 0.012446 -3.099780 3.203094 -0.208350 0.070840 -0.114520 -3.989878 -2.491359 -8.228344 15.879294 0.649132 -4.886057 -6.469979 0.586161 -16.159068 2.973337 -4.090373 -13.458418 -10.797889 3.695522 39.746061 1.429110 1.034670 12.168920 -1.532660 3.658617 3.068518 -11.052933 7.511564 -1.557278 12.134446 5.295629 1.460410 -4.061268 2.938952 -0.285990 0.004260 -0.084520 -0.138850 -4.205833 2.161082 9.606662 13.281473 -11.335129 -1.605580 -9.482562 -5.367545 0.951209 3.592006 -1.134938 0.074410 -0.175460 -0.001290 0.225990 
-0.467740 16.866780 -1.175870 -6.299085 -0.690417 16.732126 -14.972664 12.928504 3.611565 18.397181 -2.170584 -10.193266 -4.035573 3.366268 -5.491885 0.672814 3.772295 3.217150 -0.319570 -0.140680 -0.185240 18.362945 -10.025597 3.127305 -8.074790 0.794601 -10.070465 6.936714 -2.297310 -3.587947 0.010566 -3.129076 3.198522 -0.218240 0.076060 -0.116130 -3.986304 -2.461189 -8.226700 15.684628 0.740881 -5.270435 -6.308116 0.619660 -16.377660 2.972814 -4.082011 -13.495393 -10.794705 3.533111 39.758977 1.348670 0.858840 12.586820 -1.462830 3.774293 3.083431 -11.274323 7.785713 -1.615607 12.429566 5.398448 1.530089 -4.063973 2.939362 -0.293490 0.007030 -0.088800 -0.136450 -4.251819 2.071465 9.662056 13.232343 -11.867268 -1.653025 -9.449009 -5.214698 0.939254 3.595270 -1.135008 0.075690 -0.177730 -0.001380 0.231720 
-0.439170 16.865530 -1.169990 -6.226950 -0.397964 16.824480 -14.976478 12.904739 3.615989 18.144295 -2.191577 -10.123860 -3.999617 3.306873 -5.823105 0.686481 3.763620 3.227602 -0.329670 -0.152520 -0.194340 18.363047 -10.016270 3.131268 -8.286409 0.797797 -9.984796 6.928286 -2.283964 -3.783477 0.010082 -3.154955 3.193917 -0.227980 0.081190 -0.115740 -3.985406 -2.440248 -8.223815 15.594726 0.795067 -5.584033 -6.190827 0.627647 -16.513507 2.975546 -4.091268 -13.529106 -10.801389 3.399283 39.692319 1.251110 0.728910 12.961070 -1.342640 3.895887 3.111418 -11.611517 8.087872 -1.689393 12.785186 5.313607 1.588953 -4.066972 2.944206 -0.300670 0.010560 -0.094080 -0.135250 -4.370305 1.993618 9.705366 13.268800 -12.206897 -1.701667 -9.460980 -5.097358 0.934231 3.598154 -1.136842 0.077400 -0.181650 0.000680 0.236090 
